{"title":"Carmen van het Noorden-AC3-5,1-DVDRip-2009","uid":5270915,"size":1461220342,"categoryP":"video","categoryS":"movies","magnet":"?xt=urn:btih:08347687942245c1f3122c8c83379aecaff87dd7&amp;dn=Carmen+van+het+Noorden-AC3-5%2C1-DVDRip-2009&amp;tr=udp%3A%2F%2Ftracker.openbittorrent.com%3A80&amp;tr=udp%3A%2F%2Fopen.demonii.com%3A1337&amp;tr=udp%3A%2F%2Ftracker.coppersurfer.tk%3A6969&amp;tr=udp%3A%2F%2Fexodus.desync.com%3A6969","seeders":0,"leechers":1,"uploader":"FatFreddy31","files":-1,"time":1263142011,"description":" &lt;a href=&quot;http://www.imdb.com/title/tt1208650/&quot; rel=&quot;nofollow&quot; target=&quot;_NEW&quot;&gt;http://www.imdb.com/title/tt1208650/&lt;/a&gt;\n &lt;a href=&quot;\nhttp://www.moviemeter.nl/film/54958&quot; rel=&quot;nofollow&quot; target=&quot;_NEW&quot;&gt;\nhttp://www.moviemeter.nl/film/54958&lt;/a&gt;\n\nNederland\nDrama / Muziek\n85 minuten\n\nGeregisseerd door Jelle Nesna\nMet Tygo Gernandt, Sanguita Akkrum en Thom Hoffman\n\nDe jonge en onzekere rechercheur Joz staat op het punt te trouwen met Maryam. Onverwachts krijgt hij een grote zaak toegewezen rond de moord op een prostituee. Zijn relatie komt op losse schroeven te staan wanneer hij door het onderzoek de verleidelijke Carmen ontmoet, een mooie vrijgevochten en ambitieuze jonge vrouw. Hij kan niet aan Carmen ontkomen en zet zijn toekomst op het spel.\n\nInfo:\n\nGeneral\nComplete name                    : Carmen van het Noorden-AC3-5,1-DVDRip-2009.avi\nFormat                           : AVI\nFormat/Info                      : Audio Video Interleave\nFile size                        : 1.36 GiB\nDuration                         : 1h 21mn\nOverall bit rate                 : 2 376 Kbps\nWriting application              : VirtualDubMod 1.5.4.1 (build 2178/release)\nWriting library                  : VirtualDubMod build 2178/release\n\nVideo\nID                               : 0\nFormat                           : MPEG-4 Visual\nFormat profile                   : Simple@L3\nFormat settings, BVOP            : No\nFormat settings, QPel            : No\nFormat settings, GMC             : No warppoints\nFormat settings, Matrix          : Default (H.263)\nCodec ID                         : XVID\nCodec ID/Hint                    : XviD\nDuration                         : 1h 21mn\nBit rate                         : 1 918 Kbps\nWidth                            : 704 pixels\nHeight                           : 384 pixels\nDisplay aspect ratio             : 16:9\nFrame rate                       : 25.000 fps\nResolution                       : 24 bits\nColorimetry                      : 4:2:0\nScan type                        : Progressive\nBits/(Pixel*Frame)               : 0.284\nStream size                      : 1.10 GiB (81%)\nWriting library                  : XviD 1.1.2 (UTC 2006-11-01)\n\nAudio\nID                               : 1\nFormat                           : AC-3\nFormat/Info                      : Audio Coding 3\nCodec ID                         : 2000\nDuration                         : 1h 21mn\nBit rate mode                    : Constant\nBit rate                         : 448 Kbps\nChannel(s)                       : 6 channels\nChannel positions                : Front: L C R, Surround: L R, LFE\nSampling rate                    : 48.0 KHz\nStream size                      : 263 MiB (19%)\nAlignment                        : Split accross interleaves\nInterleave, duration             : 40 ms (1.00 video frame)\nInterleave, preload duration     : 500 ms\n\nVeel plezier met deze film.","torrent":{"xt":"urn:btih:08347687942245c1f3122c8c83379aecaff87dd7","amp;dn":"Carmen+van+het+Noorden-AC3-5%2C1-DVDRip-2009","amp;tr":["udp%3A%2F%2Ftracker.openbittorrent.com%3A80","udp%3A%2F%2Fopen.demonii.com%3A1337","udp%3A%2F%2Ftracker.coppersurfer.tk%3A6969","udp%3A%2F%2Fexodus.desync.com%3A6969"],"infoHash":"08347687942245c1f3122c8c83379aecaff87dd7","infoHashBuffer":{"type":"Buffer","data":[8,52,118,135,148,34,69,193,243,18,44,140,131,55,154,236,175,248,125,215]},"announce":[],"urlList":[]}}